<?xml version="1.0" encoding="UTF-8"?>
<svg width="16px" height="14px" viewBox="0 0 16 14" version="1.1" xmlns="http://www.w3.org/2000/svg" xmlns:xlink="http://www.w3.org/1999/xlink">
    <!-- Generator: Sketch 52.2 (67145) - http://www.bohemiancoding.com/sketch -->
    <title>icon_heart</title>
    <desc>Created with Sketch.</desc>
    <g id="Page-1" stroke="none" stroke-width="1" fill="none" fill-rule="evenodd">
        <g id="定制列表页" transform="translate(-345.000000, -412.000000)" stroke="#BEA47A" stroke-width="0.857142857">
            <g id="Group-22" transform="translate(195.000000, 124.000000)">
                <g id="Group-24">
                    <g id="Group-3" transform="translate(5.000000, 286.000000)">
                        <path d="M152.99943,4.34357222 C153.780045,3.20871375 155.086474,2.57142857 156.474527,2.57142857 C158.845472,2.57142857 160.428571,4.28994602 160.428571,6.42123018 C160.428571,8.30347739 159.21503,10.3684873 156.857094,12.5814395 C155.567021,13.7931662 153.969822,14.9739307 153.387688,15.3158946 C153.271966,15.390536 153.135527,15.4285714 153,15.4285714 C152.878959,15.4285714 152.755776,15.3973307 152.658527,15.342659 C151.84433,14.9092771 150.464534,14.0056027 149.160303,12.8732002 C146.824385,10.8433649 145.571429,8.72615264 145.571429,6.73585499 C145.571429,4.451442 147.178956,2.60498855 149.606987,2.60498855 C150.957707,2.60498855 152.231073,3.23024565 152.99943,4.34357222 Z" id="icon_heart"></path>
                    </g>
                </g>
            </g>
        </g>
    </g>
</svg>