<?xml version="1.0" encoding="UTF-8"?>
<svg width="18px" height="19px" viewBox="0 0 18 19" version="1.1" xmlns="http://www.w3.org/2000/svg" xmlns:xlink="http://www.w3.org/1999/xlink">
    <!-- Generator: Sketch 52.2 (67145) - http://www.bohemiancoding.com/sketch -->
    <title>Page 1</title>
    <desc>Created with Sketch.</desc>
    <defs>
        <polygon id="path-1" points="10.1154 10.20015 10.1154 0.0843 5.12258826e-05 0.0843 5.12258826e-05 10.20015 10.1154 10.20015"></polygon>
    </defs>
    <g id="Page-1" stroke="none" stroke-width="1" fill="none" fill-rule="evenodd">
        <g id="选择邮寄—有默认地址" transform="translate(-241.000000, -287.000000)">
            <g id="Group-7" transform="translate(0.000000, 187.000000)">
                <g id="Group-6" transform="translate(0.000000, 86.000000)">
                    <g id="Page-1" transform="translate(241.000000, 14.000000)">
                        <path d="M14.7,8.15931 C14.5344,8.15931 14.4,8.29371 14.4,8.45931 L14.4,17.61561 L0.6,17.61561 L0.6,2.61561 L12.4044,2.61561 C12.57,2.61561 12.7044,2.48151 12.7044,2.31561 C12.7044,2.15031 12.57,2.01561 12.4044,2.01561 L0.3,2.01561 C0.1344,2.01561 0,2.15031 0,2.31561 L0,17.91561 C0,18.08151 0.1344,18.21561 0.3,18.21561 L14.7,18.21561 C14.8656,18.21561 15,18.08151 15,17.91561 L15,8.45931 C15,8.29371 14.8656,8.15931 14.7,8.15931" id="Fill-1" fill="#231F20"></path>
                        <g id="Group-5" transform="translate(7.800000, 0.215760)">
                            <mask id="mask-2" fill="white">
                                <use xlink:href="#path-1"></use>
                            </mask>
                            <g id="Clip-4"></g>
                            <path d="M9.3879,1.58775 L8.7,2.27565 L7.9242,1.50015 L8.6121,0.81195 C8.6982,0.72615 8.7924,0.68415 8.8998,0.68415 C9.1233,0.68415 9.3765,0.87195 9.4758,1.11195 C9.5511,1.29375 9.5217,1.45395 9.3879,1.58775 Z M2.2287,8.74725 L0.8712,9.32895 L1.4529,7.97145 L7.5,1.92435 L8.2758,2.70015 L2.2287,8.74725 Z M10.0302,0.88215 C9.8385,0.41985 9.363,0.08415 8.8998,0.08415 C8.6328,0.08415 8.3865,0.18945 8.1879,0.38775 L0.9879,7.58775 C0.9609,7.61475 0.9393,7.64685 0.9243,7.68165 L0.0243,9.78165 C-0.024,9.89445 0.0012,10.02525 0.0879,10.11195 C0.1452,10.16955 0.222,10.20015 0.3,10.20015 C0.3399,10.20015 0.3801,10.19205 0.4182,10.17585 L2.5182,9.27585 C2.5533,9.26085 2.5851,9.23895 2.6121,9.21195 L9.8121,2.01195 C10.116,1.70835 10.1973,1.28595 10.0302,0.88215 Z" id="Fill-3" fill="#231F20" mask="url(#mask-2)"></path>
                        </g>
                    </g>
                </g>
            </g>
        </g>
    </g>
</svg>