<?xml version="1.0" encoding="UTF-8" standalone="no"?>
<svg width="16px" height="20px" viewBox="0 0 16 20" version="1.1" xmlns="http://www.w3.org/2000/svg" xmlns:xlink="http://www.w3.org/1999/xlink">
    <!-- Generator: Sketch 44.1 (41455) - http://www.bohemiancoding.com/sketch -->
    <title>Group 15</title>
    <desc>Created with Sketch.</desc>
    <defs>
        <path d="M0.400353129,13.2555187 C0.400656722,13.2479727 0.401071866,13.2403993 0.4016,13.2328 L1.2456,1.2584 C1.2752,0.844 1.6296,0.508 2.0384,0.508 L13.876,0.508 C14.284,0.508 14.64,0.8448 14.6696,1.2584 L15.5376,13.2328 C15.5387196,13.2480619 15.5393824,13.2632196 15.5395999,13.2782602 L15.5395999,13.3003208 C15.5341145,13.6781534 15.246874,13.9767519 14.8666501,13.98464 L1.07417936,13.98464 C0.700337293,13.9768698 0.415377902,13.6870158 0.400353129,13.3172112 L0.400353129,13.255517 L0.400353129,13.2555187 Z" id="path-1"></path>
    </defs>
    <g id="Page-1" stroke="none" stroke-width="1" fill="none" fill-rule="evenodd">
        <g id="右上角更多展开" transform="translate(-214.000000, -127.000000)">
            <g id="Group-15" transform="translate(214.000000, 128.000000)">
                <g id="Group-5" transform="translate(0.000000, 4.000000)">
                    <g id="Stroke-3-Clipped">
                        <mask id="mask-2" fill="white">
                            <use xlink:href="#path-1"></use>
                        </mask>
                        <g id="path-1"></g>
                        <path d="M2.03832,0.50784 C1.62952,0.50784 1.27512,0.84384 1.24552,1.25824 L0.40232,13.23264 C0.37272,13.64784 0.68072,13.98464 1.08952,13.98464 L14.85192,13.98464 C15.26152,13.98464 15.56792,13.64784 15.53752,13.23264 L14.67032,1.25824 C14.63992,0.84464 14.28472,0.50784 13.87592,0.50784 L2.03832,0.50784 Z" id="Stroke-3" stroke="#333333" mask="url(#mask-2)"></path>
                    </g>
                </g>
                <path d="M11.49688,4.50784 L11.49688,3.99424 C11.49688,2.00864 9.91608,0.39984 7.96648,0.39984 C6.01608,0.39984 4.43528,2.00944 4.43528,3.99424 L4.43528,4.50784" id="Stroke-6" stroke="#333333" stroke-width="0.8"></path>
                <path d="M2.03832,4.50784 C1.62952,4.50784 1.27512,4.84384 1.24552,5.25824 L0.40232,17.23264 C0.37272,17.64784 0.68072,17.98464 1.08952,17.98464 L14.85192,17.98464 C15.26152,17.98464 15.56792,17.64784 15.53752,17.23264 L14.67032,5.25824 C14.63992,4.84464 14.28472,4.50784 13.87592,4.50784 L2.03832,4.50784 Z" id="Stroke-1" stroke="#333333" stroke-width="0.5"></path>
            </g>
        </g>
    </g>
</svg>