<?xml version="1.0" encoding="UTF-8"?>
<svg width="14px" height="12px" viewBox="0 0 14 12" version="1.1" xmlns="http://www.w3.org/2000/svg" xmlns:xlink="http://www.w3.org/1999/xlink">
    <!-- Generator: Sketch 52.2 (67145) - http://www.bohemiancoding.com/sketch -->
    <title>icon_heart_fill</title>
    <desc>Created with Sketch.</desc>
    <g id="Page-1" stroke="none" stroke-width="1" fill="none" fill-rule="evenodd">
        <g id="定制列表页" transform="translate(-161.000000, -413.000000)" fill="#BEA47A">
            <g id="Group-22" transform="translate(10.000000, 124.000000)">
                <g id="Group-24">
                    <g id="Group-3" transform="translate(5.000000, 286.000000)">
                        <path d="M153,5.2319484 C152.360626,3.71944207 150.913755,3.03355998 149.606987,3.03355998 C147.237991,3.03355998 146,4.8963486 146,6.73585499 C146,8.58144413 147.189592,10.5929454 149.441412,12.549702 C151.130277,14.0160633 152.788574,14.9263778 152.859898,14.9643425 C152.900655,14.9872053 152.951601,15 153,15 C153.053493,15 153.109534,14.9853175 153.155386,14.9557428 C153.173217,14.9452553 154.879913,13.8505707 156.563683,12.2690566 C158.843523,10.1293982 160,8.16194438 160,6.42123018 C160,4.72204646 158.787482,3 156.474527,3 C155.132096,3 153.647016,3.69636958 153,5.2319484 Z" id="icon_heart_fill"></path>
                    </g>
                </g>
            </g>
        </g>
    </g>
</svg>