<?xml version="1.0" encoding="UTF-8"?>
<svg width="70px" height="70px" viewBox="0 0 70 70" version="1.1" xmlns="http://www.w3.org/2000/svg" xmlns:xlink="http://www.w3.org/1999/xlink">
    <!-- Generator: Sketch 52.3 (67297) - http://www.bohemiancoding.com/sketch -->
    <title>Bitmap</title>
    <desc>Created with Sketch.</desc>
    <defs>
        <circle id="path-1" cx="35" cy="35" r="35"></circle>
    </defs>
    <g id="Page-1" stroke="none" stroke-width="1" fill="none" fill-rule="evenodd">
        <g id="定制详情页面—选择烫钻颜色及材质" transform="translate(-275.000000, -365.000000)">
            <g id="Group-4" transform="translate(240.000000, 345.000000)">
                <g id="Bitmap" transform="translate(35.000000, 20.000000)">
                    <mask id="mask-2" fill="white">
                        <use xlink:href="#path-1"></use>
                    </mask>
                    <use id="Mask" fill="#FFFFFF" xlink:href="#path-1"></use>
                    <g id="pencil" mask="url(#mask-2)">
                        <g transform="translate(18.000000, 18.000000)">
                            <g>
                                <path d="M23.6495641,1.73451358 L23.6519888,1.72866914 C26.2588954,-0.872315331 30.4789959,-0.872315331 33.0856164,1.72867917 L33.0859682,1.72903093 C35.6875746,4.33537502 35.6875746,8.5560998 33.0634859,11.1824079 L33.081822,11.1657352 L12.2429005,32.0056989 C12.1718856,32.0734488 12.0894375,32.1281043 12.0042105,32.1648506 C11.9704518,32.1797947 11.9704518,32.1797947 11.9323627,32.1936908 C11.939375,32.1910066 11.939375,32.1910066 11.9332603,32.1936682 C11.9322484,32.1941238 11.9322484,32.1941238 11.9310931,32.1946435 C11.9111091,32.2037846 11.9111091,32.2037846 11.8646701,32.2187135 L0.792962939,35.0378653 C0.507083746,35.1119822 0.203065977,35.0292723 -0.00576442754,34.8204419 C-0.214752889,34.6114534 -0.297624021,34.3072558 -0.223453057,34.0227463 L2.60179642,22.9332986 C2.6160296,22.8932462 2.6160296,22.8932462 2.62257007,22.8799002 C2.63721052,22.8410641 2.63721052,22.8410641 2.64874283,22.8160583 C2.68741394,22.726097 2.74191247,22.6436796 2.81423758,22.5675602 L23.6495641,1.73451358 Z M31.9068281,2.90755106 C30.1705572,1.17540061 27.4487911,0.962980523 25.4708385,2.36697661 L32.4474236,9.34436972 C33.8515109,7.36605829 33.6391696,4.6442742 31.9068281,2.90755106 Z M31.9068281,2.90755106 C31.9067594,2.90748214 31.9066906,2.90741322 31.9066219,2.9073443 L31.9070349,2.90775733 C31.906966,2.90768857 31.906897,2.90761982 31.9068281,2.90755106 Z M24.2417677,3.50058467 L22.5029012,5.23708283 L29.5776844,12.3115945 L31.3167585,10.5720466 L24.2417677,3.50058467 Z M5.25368085,32.1792111 L10.0317101,30.9645687 L3.85073708,24.7830777 L1.77775074,32.94407 L5.25368085,32.1792111 Z M11.6576083,30.2303083 L28.3987352,13.490577 L21.3240863,6.41565664 L4.58270716,23.1570359 L11.6576083,30.2303083 Z" id="Shape" stroke="#BEA47A" stroke-width="0.5" fill="#BEA47A"></path>
                            </g>
                        </g>
                    </g>
                </g>
            </g>
        </g>
    </g>
</svg>