<?xml version="1.0" encoding="UTF-8"?>
<svg width="22px" height="17px" viewBox="0 0 22 17" version="1.1" xmlns="http://www.w3.org/2000/svg" xmlns:xlink="http://www.w3.org/1999/xlink">
    <!-- Generator: Sketch 52.2 (67145) - http://www.bohemiancoding.com/sketch -->
    <title>icon_ measure</title>
    <desc>Created with Sketch.</desc>
    <defs>
        <polygon id="path-1" points="25 24.9999583 25 0 0 0 0 24.9999583 25 24.9999583"></polygon>
    </defs>
    <g id="Symbols" stroke="none" stroke-width="1" fill="none" fill-rule="evenodd">
        <g id="Page-1" transform="translate(-2.000000, -4.000000)">
            <g id="icon_-measure">
                <mask id="mask-2" fill="white">
                    <use xlink:href="#path-1"></use>
                </mask>
                <g id="Clip-2"></g>
                <g id="ruler" transform="translate(2.000000, 4.000000)" fill="#000000" fill-rule="nonzero">
                    <path d="M7.53821676,8.27222819 C9.3597764,8.27222819 10.8453125,7.11476891 10.8453125,5.69674256 C10.8453125,4.27855307 9.36419149,3.12109374 7.53821676,3.12109374 C5.71224195,3.12109374 4.23112098,4.27855307 4.23112098,5.69674256 C4.23112098,7.11476891 5.71665713,8.27222819 7.53821676,8.27222819 Z M7.53821676,4.03593366 C8.86449254,4.03593366 9.96102352,4.79544496 9.96102352,5.69657937 C9.96102352,6.59787702 8.85124712,7.35722512 7.53821676,7.35722512 C6.22502869,7.35722512 5.11525229,6.59787702 5.11525229,5.69657937 C5.11525229,4.79544496 6.22502869,4.03136517 7.53821676,4.03136517 L7.53821676,4.03593366 Z" id="Shape"></path>
                    <path d="M21.5578555,10.4544975 L15.0321244,10.4544975 L15.0321244,5.69201092 C15.0321244,2.5629223 11.6676319,0.0148475995 7.51614103,0.0148475995 C3.36449254,0.0148475995 0,2.5629223 0,5.69201092 L0,11.319084 C0,14.2011479 2.85170584,16.5800253 6.52573107,16.9414254 L6.60094612,16.9414254 C6.90590596,16.9689995 7.21543866,16.991842 7.52938649,16.991842 L21.5578555,16.991842 C21.8019495,16.991842 22,16.7869126 22,16.5343404 L22,10.9118359 C22,10.6594268 21.8019495,10.4544975 21.5578555,10.4544975 Z M7.53821676,0.93425601 C11.1855935,0.93425601 14.1700688,3.07067721 14.1700688,5.69674256 C14.1700688,8.32264472 11.2034117,10.459066 7.53821676,10.459066 C3.87302177,10.459066 0.906364679,8.32264472 0.906364679,5.69657937 C0.906364679,3.07067721 3.8950975,0.93425601 7.53821676,0.93425601 Z M14.1700688,8.36376112 L14.1700688,10.4544975 L11.6056623,10.4544975 C12.606637,9.98508525 13.4798882,9.2668535 14.1478354,8.36376112 L14.1700688,8.36376112 Z M21.115711,16.0768389 L20.231422,16.0768389 L20.231422,13.7619203 C20.231422,13.5095113 20.0333716,13.3044188 19.7894352,13.3044188 C19.5453412,13.3044188 19.3472907,13.5093481 19.3472907,13.7619203 L19.3472907,16.0814074 L17.5787127,16.0814074 L17.5787127,14.8232782 C17.5787127,14.570706 17.3806623,14.3657767 17.1365682,14.3657767 C16.8924742,14.3657767 16.6944237,14.570706 16.6944237,14.8232782 L16.6944237,16.0814074 L14.9260034,16.0814074 L14.9260034,14.8232782 C14.9260034,14.570706 14.727953,14.3657767 14.483859,14.3657767 C14.2397649,14.3657767 14.0417144,14.570706 14.0417144,14.8232782 L14.0417144,16.0814074 L12.2731364,16.0814074 L12.2731364,13.7619203 C12.2731364,13.5095113 12.075086,13.3044188 11.830992,13.3044188 C11.5870556,13.3044188 11.3888475,13.5093481 11.3888475,13.7619203 L11.3888475,16.0814074 L9.6956422,16.0814074 L9.6956422,14.8232782 C9.6956422,14.570706 9.49743407,14.3657767 9.25349771,14.3657767 C9.00940367,14.3657767 8.81135321,14.570706 8.81135321,14.8232782 L8.81135321,16.0814074 L7.53790138,16.0814074 C7.36996847,16.0814074 7.20645071,16.0814074 7.04277523,16.0814074 L7.04277523,14.8232782 C7.04277523,14.570706 6.84472477,14.3657767 6.60063073,14.3657767 C6.3565367,14.3657767 6.15848624,14.570706 6.15848624,14.8232782 L6.15848624,15.9716005 C3.17448394,15.514099 0.928440367,13.60186 0.928440367,11.3145155 L0.928440367,8.36376112 C2.19290425,10.1524877 4.68209575,11.3693374 7.56029241,11.3693374 L21.115711,11.3693374 L21.115711,16.0768389 Z" id="Shape"></path>
                </g>
            </g>
        </g>
    </g>
</svg>