<?xml version="1.0" encoding="UTF-8"?>
<svg width="19px" height="13px" viewBox="0 0 19 13" version="1.1" xmlns="http://www.w3.org/2000/svg" xmlns:xlink="http://www.w3.org/1999/xlink">
    <!-- Generator: Sketch 52.2 (67145) - http://www.bohemiancoding.com/sketch -->
    <title>icon_menus</title>
    <desc>Created with Sketch.</desc>
    <g id="Page-1" stroke="none" stroke-width="1" fill="none" fill-rule="evenodd">
        <g id="定制首页" transform="translate(-15.000000, -18.000000)" fill="#BEA47A">
            <g id="Group-5">
                <g id="Group-21">
                    <g id="icon_menus" transform="translate(15.000000, 18.000000)">
                        <path d="M0.678571429,0 C0.303321429,0 5.55111512e-17,0.224 5.55111512e-17,0.5 C5.55111512e-17,0.776 0.303321429,1 0.678571429,1 L18.3214286,1 C18.6966786,1 19,0.776 19,0.5 C19,0.224 18.6966786,0 18.3214286,0 L0.678571429,0 Z" id="Fill-1"></path>
                        <path d="M0.678571429,6 C0.303321429,6 5.55111512e-17,6.224 5.55111512e-17,6.5 C5.55111512e-17,6.776 0.303321429,7 0.678571429,7 L18.3214286,7 C18.6966786,7 19,6.776 19,6.5 C19,6.224 18.6966786,6 18.3214286,6 L0.678571429,6 Z" id="Fill-5"></path>
                        <path d="M0.678571429,12 C0.303321429,12 5.55111512e-17,12.224 5.55111512e-17,12.5 C5.55111512e-17,12.776 0.303321429,13 0.678571429,13 L18.3214286,13 C18.6966786,13 19,12.776 19,12.5 C19,12.224 18.6966786,12 18.3214286,12 L0.678571429,12 Z" id="Fill-9"></path>
                    </g>
                </g>
            </g>
        </g>
    </g>
</svg>