<?xml version="1.0" encoding="UTF-8" standalone="no"?>
<svg width="23px" height="15px" viewBox="0 0 23 15" version="1.1" xmlns="http://www.w3.org/2000/svg" xmlns:xlink="http://www.w3.org/1999/xlink">
    <!-- Generator: Sketch 42 (36781) - http://www.bohemiancoding.com/sketch -->
    <title>人气衣橱</title>
    <desc>Created with Sketch.</desc>
    <defs></defs>
    <g id="Page-1" stroke="none" stroke-width="1" fill="none" fill-rule="evenodd">
        <g id="Artboard-1" transform="translate(-1864.000000, -142.000000)">
            <g id="右侧漂浮窗" transform="translate(1864.000000, 142.000000)">
                <g id="人气衣橱">
                    <rect id="Rectangle-7" fill="#ffffff" x="0" y="0" width="23" height="15"></rect>
                    <g id="Page-1" transform="translate(0.000000, 0.000000)" fill="#333333">
                        <path d="M21.8334818,13.4706478 C21.8120243,13.5398785 21.7253846,13.7653846 21.5209312,13.7653846 L1.15615385,13.7653846 C0.950890688,13.7653846 0.864251012,13.5406883 0.842793522,13.4718623 C0.781659919,13.2771255 0.805951417,13.0208502 0.96708502,12.8941296 L11.3383401,7.34190283 L21.7095951,12.8941296 C21.8703239,13.0204453 21.8946154,13.2767206 21.8334818,13.4706478 M22.1569636,12.2180162 C22.1440081,12.2095142 22.1302429,12.2010121 22.1164777,12.1937247 L11.7476518,6.64271255 C11.7687045,5.83016194 11.8901619,5.65445344 11.92417,5.62530364 C12.0326721,5.57105263 12.1399595,5.51923077 12.244413,5.46902834 C13.1921862,5.01356275 14.1723482,4.54230769 14.1723482,2.83421053 C14.1723482,1.27145749 12.9010931,0.00020242915 11.3383401,0.00020242915 C9.7759919,0.00020242915 8.50433198,1.27145749 8.50433198,2.83421053 C8.50433198,3.05769231 8.68530364,3.23906883 8.90919028,3.23906883 C9.13307692,3.23906883 9.31404858,3.05769231 9.31404858,2.83421053 C9.31404858,1.71801619 10.2221457,0.809919028 11.3383401,0.809919028 C12.4545344,0.809919028 13.3626316,1.71801619 13.3626316,2.83421053 C13.3626316,4.03299595 12.81,4.29939271 11.8938057,4.73947368 C11.7853036,4.7917004 11.6743725,4.84473684 11.5618219,4.90101215 C11.0622267,5.15161943 10.9533198,5.86376518 10.9367206,6.63825911 L0.560202429,12.1937247 C0.546437247,12.2010121 0.532672065,12.2095142 0.519716599,12.2184211 C0.0687044534,12.532996 -0.112267206,13.1338057 0.0703238866,13.7143725 C0.234291498,14.2374494 0.660607287,14.5751012 1.15615385,14.5751012 L21.5209312,14.5751012 C22.0160729,14.5751012 22.4419838,14.2366397 22.6063563,13.7131579 C22.7881377,13.1325911 22.6075709,12.5321862 22.1569636,12.2180162" id="Fill-1"></path>
                    </g>
                </g>
            </g>
        </g>
    </g>
</svg>
