<?xml version="1.0" encoding="UTF-8"?>
<svg width="7px" height="14px" viewBox="0 0 7 14" version="1.1" xmlns="http://www.w3.org/2000/svg" xmlns:xlink="http://www.w3.org/1999/xlink">
    <!-- Generator: Sketch 52.2 (67145) - http://www.bohemiancoding.com/sketch -->
    <title>Page 1</title>
    <desc>Created with Sketch.</desc>
    <g id="Page-1" stroke="none" stroke-width="1" fill="none" fill-rule="evenodd">
        <g id="定制商品详情页面—默认" transform="translate(-353.000000, -690.000000)" fill="#FFFFFF" stroke="#CCCCCC">
            <g id="Group-26" transform="translate(0.000000, 675.000000)">
                <g id="Group-4">
                    <g id="Page-1" transform="translate(356.500000, 22.000000) rotate(-90.000000) translate(-356.500000, -22.000000) translate(349.500000, 18.500000)">
                        <path d="M9.9268125,-2.468375 C9.8290625,-2.57114773 9.6710625,-2.57114773 9.5733125,-2.468375 L4.0733125,3.3142337 C3.9755625,3.41700642 3.9755625,3.583125 4.0733125,3.68589773 L9.5733125,9.46850642 C9.6220625,9.51976136 9.6860625,9.54552026 9.7500625,9.54552026 C9.8140625,9.54552026 9.8780625,9.51976136 9.9268125,9.46850642 C10.0245625,9.3657337 10.0245625,9.19961512 9.9268125,9.09684239 L4.6035625,3.50006571 L9.9268125,-2.09671097 C10.0245625,-2.1994837 10.0245625,-2.36560227 9.9268125,-2.468375" id="Fill-1" transform="translate(7.000062, 3.500033) rotate(-90.000000) translate(-7.000062, -3.500033) "></path>
                    </g>
                </g>
            </g>
        </g>
    </g>
</svg>