<?xml version="1.0" encoding="UTF-8"?>
<svg width="18px" height="18px" viewBox="0 0 18 18" version="1.1" xmlns="http://www.w3.org/2000/svg" xmlns:xlink="http://www.w3.org/1999/xlink">
    <!-- Generator: Sketch 52.2 (67145) - http://www.bohemiancoding.com/sketch -->
    <title>Page 1</title>
    <desc>Created with Sketch.</desc>
    <g id="Page-1" stroke="none" stroke-width="1" fill="none" fill-rule="evenodd">
        <g id="选择邮寄—有默认地址" transform="translate(-308.000000, -287.000000)" fill="#231F20">
            <g id="Group-7" transform="translate(0.000000, 187.000000)">
                <g id="Group-6" transform="translate(0.000000, 86.000000)">
                    <g id="Page-1" transform="translate(308.000000, 14.000000)">
                        <path d="M15,17.4 L3,17.4 L3,3 L5.7,3 L12.3,3 L15,3 L15,17.4 Z M6,2.4 L12,2.4 L12,0.6 L6,0.6 L6,2.4 Z M17.7,2.4 L15.3,2.4 L12.6,2.4 L12.6,0.3 C12.6,0.1344 12.4656,0 12.3,0 L5.7,0 C5.5344,0 5.4,0.1344 5.4,0.3 L5.4,2.4 L2.7,2.4 L0.3,2.4 C0.1344,2.4 0,2.5344 0,2.7 C0,2.8656 0.1344,3 0.3,3 L2.4,3 L2.4,17.7 C2.4,17.8656 2.5344,18 2.7,18 L15.3,18 C15.4656,18 15.6,17.8656 15.6,17.7 L15.6,3 L17.7,3 C17.8656,3 18,2.8656 18,2.7 C18,2.5344 17.8656,2.4 17.7,2.4 Z" id="Fill-1"></path>
                        <path d="M5.7,5.7 C5.5344,5.7 5.4,5.8344 5.4,6 L5.4,14.4 C5.4,14.5656 5.5344,14.7 5.7,14.7 C5.8656,14.7 6,14.5656 6,14.4 L6,6 C6,5.8344 5.8656,5.7 5.7,5.7" id="Fill-3"></path>
                        <path d="M9,5.7 C8.8344,5.7 8.7,5.8344 8.7,6 L8.7,14.4 C8.7,14.5656 8.8344,14.7 9,14.7 C9.1656,14.7 9.3,14.5656 9.3,14.4 L9.3,6 C9.3,5.8344 9.1656,5.7 9,5.7" id="Fill-5"></path>
                        <path d="M12,6 L12,14.4 C12,14.5656 12.1344,14.7 12.3,14.7 C12.4656,14.7 12.6,14.5656 12.6,14.4 L12.6,6 C12.6,5.8344 12.4656,5.7 12.3,5.7 C12.1344,5.7 12,5.8344 12,6" id="Fill-7"></path>
                    </g>
                </g>
            </g>
        </g>
    </g>
</svg>