<?xml version="1.0" encoding="UTF-8" standalone="no"?>
<svg width="17px" height="17px" viewBox="0 0 17 17" version="1.1" xmlns="http://www.w3.org/2000/svg" xmlns:xlink="http://www.w3.org/1999/xlink">
    <!-- Generator: Sketch 44.1 (41455) - http://www.bohemiancoding.com/sketch -->
    <title>Icon</title>
    <desc>Created with Sketch.</desc>
    <defs></defs>
    <g id="Page-1" stroke="none" stroke-width="1" fill="none" fill-rule="evenodd">
        <g id="右上角更多展开" transform="translate(-213.000000, -167.000000)" fill="#333333">
            <g id="Icon" transform="translate(213.000000, 167.000000)">
                <g id="Page-1">
                    <path d="M8.46187143,8.86428571 C6.98882143,8.86428571 5.79044286,7.66590714 5.79044286,6.19285714 C5.79044286,4.71980714 6.98882143,3.52142857 8.46187143,3.52142857 C9.93492143,3.52142857 11.1333,4.71980714 11.1333,6.19285714 C11.1333,7.66590714 9.93492143,8.86428571 8.46187143,8.86428571 M8.51457143,16.2710643 C6.2203,16.2671786 4.07453571,15.2666071 2.59480714,13.5168214 C3.37000714,11.26845 5.75401429,9.71428571 8.46721429,9.71428571 C11.2270429,9.71428571 13.6163929,11.2980786 14.3635429,13.5919857 C12.9406429,15.2282357 10.8473357,16.2668143 8.51457143,16.2710643 M8.5,0.728571429 C12.7852143,0.728571429 16.2714286,4.21478571 16.2714286,8.5 C16.2714286,10.1403786 15.7593643,11.6626071 14.8884786,12.9180571 C14.09045,11.0298429 12.2940357,9.63584286 10.115,9.16239286 C11.1560071,8.58062857 11.8618714,7.46785714 11.8618714,6.19285714 C11.8618714,4.31812143 10.3366071,2.79285714 8.46187143,2.79285714 C6.58713571,2.79285714 5.06187143,4.31812143 5.06187143,6.19285714 C5.06187143,7.46992143 5.76992143,8.58415 6.81372143,9.16530714 C4.66771429,9.63742143 2.88162143,11.0093214 2.07108571,12.8609857 C1.22436429,11.6165857 0.728571429,10.1152429 0.728571429,8.5 C0.728571429,4.21478571 4.21490714,0.728571429 8.5,0.728571429 M17,8.5 C17,3.8131 13.1869,0 8.5,0 C3.8131,0 0,3.8131 0,8.5 C0,13.1869 3.8131,17 8.5,17 C8.50485714,17 8.50983571,16.9996357 8.51469286,16.9996357 C8.51918571,16.9996357 8.52355714,17 8.52792857,17 C8.63757857,17 8.74662143,16.9951429 8.85566429,16.9910143 C8.88383571,16.9898 8.91237143,16.9900429 8.9403,16.9885857 C11.3141071,16.8743214 13.5255643,15.7783071 15.0587214,13.9393929 L15.1807571,13.79295 L15.1711643,13.7581 C16.3149,12.3100643 17,10.4841429 17,8.5" id="Fill-1"></path>
                </g>
            </g>
        </g>
    </g>
</svg>