<?xml version="1.0" encoding="UTF-8" standalone="no"?>
<svg width="15px" height="15px" viewBox="0 0 15 15" version="1.1" xmlns="http://www.w3.org/2000/svg" xmlns:xlink="http://www.w3.org/1999/xlink">
    <!-- Generator: Sketch 44.1 (41455) - http://www.bohemiancoding.com/sketch -->
    <title>电话</title>
    <desc>Created with Sketch.</desc>
    <defs/>
    <g id="Page-1" stroke="none" stroke-width="1" fill="none" fill-rule="evenodd">
        <g id="首页" transform="translate(-28.000000, -4064.000000)" fill="#BEA47A">
            <path d="M35.5,4079 C39.6421356,4079 43,4075.64214 43,4071.5 C43,4067.35786 39.6421356,4064 35.5,4064 C31.3578644,4064 28,4067.35786 28,4071.5 C28,4075.64214 31.3578644,4079 35.5,4079 Z M39.5089394,4074.8556 L38.9852449,4075.37915 C38.7601495,4075.60455 38.4601751,4075.72863 38.1404877,4075.72863 C37.9050009,4075.72863 37.6765436,4075.65987 37.4798716,4075.52982 C35.1940759,4074.01803 33.1867078,4072.01066 31.6749163,4069.72517 C31.362564,4069.25252 31.4259819,4068.61925 31.8258968,4068.21934 L32.34898,4067.6961 C32.4901804,4067.55506 32.6778363,4067.47727 32.8774117,4067.47727 C33.0769871,4067.47727 33.2644902,4067.55506 33.4055378,4067.69595 L34.3598629,4068.65043 C34.650974,4068.94154 34.650974,4069.41526 34.3598629,4069.70653 L34.0418564,4070.02453 C33.9863848,4070.08001 33.9819532,4070.16864 34.0317706,4070.22946 C34.8980747,4071.28709 35.9159705,4072.30513 36.9752789,4073.17327 C37.036099,4073.22309 37.1247313,4073.21881 37.1802028,4073.16319 L37.4982093,4072.84533 C37.6394097,4072.70413 37.8270656,4072.6265 38.0264882,4072.6265 C38.2260636,4072.6265 38.4135667,4072.70413 38.5546143,4072.84518 L39.5089394,4073.79935 C39.8000505,4074.09062 39.8000505,4074.56449 39.5089394,4074.8556" id="电话"/>
        </g>
    </g>
</svg>