<?xml version="1.0" encoding="UTF-8" standalone="no"?>
<svg width="18px" height="15px" viewBox="0 0 18 15" version="1.1" xmlns="http://www.w3.org/2000/svg" xmlns:xlink="http://www.w3.org/1999/xlink">
    <!-- Generator: Sketch 44.1 (41455) - http://www.bohemiancoding.com/sketch -->
    <title>微博</title>
    <desc>Created with Sketch.</desc>
    <defs>
        <path d="M12.2361504,0.325070203 C12.2361504,0.325070203 12.3518937,0.314112781 12.5507349,0.314112781 C13.2610232,0.314112781 15.0294894,0.450914542 16.3241002,1.70238502 C17.9801206,3.30416097 17.445261,6.18031838 17.445261,6.18031838 C17.4126154,6.48181352 17.1333145,6.72354091 16.8315904,6.72354091 L16.5994441,6.72354091 C16.2960712,6.72354091 16.0899755,6.48148148 16.1358112,6.1819786 C16.1358112,6.1819786 16.56482,4.35142494 15.5712738,2.89242752 C14.5773978,1.43409419 12.2437347,1.68312652 12.2437347,1.68312652 C11.936075,1.68843921 11.6946957,1.4573372 11.6946957,1.15451389 L11.6946957,0.883898755 C11.6946957,0.580079311 11.937394,0.331046979 12.2361504,0.325070203 Z M0.193565103,9.54059464 C0.193565103,6.71623596 5.39047484,2.25689701 7.37855662,2.25689701 C8.21283211,2.25689701 9.84840776,2.89242752 8.7035048,4.90626897 C8.6718485,4.96238426 9.0794234,4.78606937 9.67330884,4.60942243 C10.5616638,4.34511612 11.8678161,4.08114185 12.7400132,4.59813297 C14.1948841,5.46044892 12.7400132,6.8467289 12.7400132,7.0007969 C12.7400132,7.15420082 15.6616262,7.15420082 15.6616262,9.54059464 C15.6616262,12.3646213 12.2249388,14.6547226 7.94441304,14.6547226 C3.66355757,14.6547226 0.193565103,12.3646213 0.193565103,9.54059464 Z M2.742557,10.4968788 C2.96316186,12.0784001 4.82626719,13.1621888 7.10749953,13.1621888 C7.44813454,13.1621888 7.79800264,13.1379497 8.15314679,13.0878112 C10.888779,12.7006489 12.8999435,10.9129288 12.6457038,9.09598892 C12.3921236,7.27738881 9.96942717,6.11756223 7.23445449,6.5047245 C4.49981157,6.89155472 2.48897682,8.67894277 2.742557,10.4968788 Z M12.5530432,2.83764041 C12.5530432,2.83764041 12.7630959,2.78351738 13.0737234,2.78351738 C13.4994347,2.78351738 14.1150839,2.88512257 14.6374129,3.36592099 C15.5409365,4.19768898 15.1534765,5.71479394 15.1534765,5.71479394 C15.1211607,5.91800433 14.9266064,6.07638889 14.7261164,6.07638889 L14.3976823,6.07638889 C14.1998304,6.07638889 14.0821085,5.92099271 14.1398153,5.72940384 C14.1398153,5.72940384 14.5167232,4.78274894 14.0349538,4.19768898 C13.5531845,3.61229698 12.5622762,3.74810261 12.5622762,3.74810261 C12.3548615,3.75407939 12.1946015,3.60266773 12.1946015,3.40078552 L12.1946015,3.25800698 C12.1946015,3.05678886 12.3551913,2.86785633 12.5530432,2.83764041 Z M6.67980969,7.57290718 C6.90733936,7.5284134 7.13322028,7.50716264 7.35415489,7.50716264 C8.71141888,7.50716264 9.87940456,8.31435944 10.1089128,9.50606216 C10.3766723,10.8926742 9.27496702,12.2739735 7.64862446,12.5927349 C6.02228189,12.9108322 4.48662144,12.0455279 4.21919163,10.6592479 C3.95143207,9.27329994 5.05313737,7.89133652 6.67980969,7.57290718 Z M7.19422461,9.54059464 C7.19422461,9.82283128 7.418127,10.0522731 7.69413039,10.0522731 C7.97079329,10.0522731 8.19436593,9.82283128 8.19436593,9.54059464 C8.19436593,9.25802596 7.97079329,9.02891621 7.69413039,9.02891621 C7.418127,9.02891621 7.19422461,9.25802596 7.19422461,9.54059464 Z M5.3182589,10.9487895 C5.43433201,11.2001461 5.70934615,11.338276 6.02623893,11.338276 C6.19441304,11.338276 6.37313925,11.299759 6.54658941,11.2184085 C7.0471547,10.9833219 7.30864895,10.4816048 7.130912,10.097763 C6.95317505,9.7135891 6.40314679,9.59305745 5.90225174,9.82814397 C5.40168645,10.0628985 5.1401922,10.5646156 5.3182589,10.9487895 Z" id="path-1"/>
    </defs>
    <g id="Page-1" stroke="none" stroke-width="1" fill="none" fill-rule="evenodd">
        <g id="首页" transform="translate(-25.000000, -4638.000000)">
            <g id="微博" transform="translate(25.000000, 4638.000000)">
                <mask id="mask-2" fill="white">
                    <use xlink:href="#path-1"/>
                </mask>
                <use id="灰色" fill="#333333" xlink:href="#path-1"/>
            </g>
        </g>
    </g>
</svg>