<?xml version="1.0" encoding="UTF-8"?>
<svg width="7px" height="14px" viewBox="0 0 7 14" version="1.1" xmlns="http://www.w3.org/2000/svg" xmlns:xlink="http://www.w3.org/1999/xlink">
    <!-- Generator: Sketch 52.2 (67145) - http://www.bohemiancoding.com/sketch -->
    <title>Page 1</title>
    <desc>Created with Sketch.</desc>
    <g id="Page-1" stroke="none" stroke-width="1" fill="none" fill-rule="evenodd">
        <g id="定制商品详情页面—开始我的设计" transform="translate(-352.000000, -691.000000)" fill="#FFFFFF" stroke="#BEA47A">
            <g id="Group-26">
                <g id="Group-23">
                    <g id="Group-14" transform="translate(0.000000, 509.000000)">
                        <g id="Page-1" transform="translate(356.000000, 189.500000) rotate(-90.000000) translate(-356.000000, -189.500000) translate(349.000000, 186.000000)">
                            <path d="M9.9268125,-2.92292045 C9.8290625,-3.02569318 9.6710625,-3.02569318 9.5733125,-2.92292045 L4.0733125,2.85968824 C3.9755625,2.96246097 3.9755625,3.12857955 4.0733125,3.23135227 L9.5733125,9.01396097 C9.6220625,9.06521591 9.6860625,9.0909748 9.7500625,9.0909748 C9.8140625,9.0909748 9.8780625,9.06521591 9.9268125,9.01396097 C10.0245625,8.91118824 10.0245625,8.74506966 9.9268125,8.64229694 L4.6035625,3.04552026 L9.9268125,-2.55125642 C10.0245625,-2.65402915 10.0245625,-2.82014773 9.9268125,-2.92292045" id="Fill-1" transform="translate(7.000062, 3.045487) rotate(-90.000000) translate(-7.000062, -3.045487) "></path>
                        </g>
                    </g>
                </g>
            </g>
        </g>
    </g>
</svg>