<?xml version="1.0" encoding="UTF-8"?>
<svg width="70px" height="70px" viewBox="0 0 70 70" version="1.1" xmlns="http://www.w3.org/2000/svg" xmlns:xlink="http://www.w3.org/1999/xlink">
    <!-- Generator: Sketch 52.2 (67145) - http://www.bohemiancoding.com/sketch -->
    <title>Bitmap</title>
    <desc>Created with Sketch.</desc>
    <defs>
        <circle id="path-1" cx="35" cy="35" r="35"></circle>
    </defs>
    <g id="Page-1" stroke="none" stroke-width="1" fill="none" fill-rule="evenodd">
        <g id="定制详情页面—选择热转印图案—已完成" transform="translate(-315.000000, -365.000000)">
            <g id="Group-4" transform="translate(280.000000, 345.000000)">
                <g id="Bitmap" transform="translate(35.000000, 20.000000)">
                    <mask id="mask-2" fill="white">
                        <use xlink:href="#path-1"></use>
                    </mask>
                    <use id="Mask" fill="#FFFFFF" xlink:href="#path-1"></use>
                    <g id="Group-22" mask="url(#mask-2)" fill="#BEA47A">
                        <g transform="translate(19.000000, 19.000000)">
                            <path d="M2.33333333,29.1666667 L29.1666667,29.1666667 L29.1666667,25.6666667 L2.33333333,25.6666667 L2.33333333,29.1666667 Z M24.4906718,23.3912964 L9.39158122,23.3912964 L12.2035726,18.852946 L15.337909,22.376237 C15.444949,22.4908652 15.608438,22.5512709 15.7751223,22.5465146 C15.9428716,22.5384288 16.0967749,22.4604245 16.1899689,22.3353323 L21.3506266,15.9253133 L24.4906718,23.3912964 Z M29.2471264,3.07758621 L29.2471264,23.4014079 L26.2413127,23.4014079 L22.2348764,13.7531695 C22.1584598,13.5478362 21.9729598,13.4037529 21.7553764,13.3786695 C21.5348764,13.3506695 21.3248764,13.4527529 21.2035431,13.6347529 L15.7528764,20.6435029 L12.5754598,16.8308362 C12.4547098,16.6861695 12.2703764,16.6085862 12.0825431,16.6231695 C11.8935431,16.6377529 11.7243764,16.7427529 11.6269598,16.9049195 L7.69512939,23.4014079 L2.4137931,23.4014079 L2.4137931,3.07758621 L29.2471264,3.07758621 Z M6.297185e-13,31.6810345 L31.6810345,31.6810345 L31.6810345,-2.79776202e-13 L6.297185e-13,-2.79776202e-13 L6.297185e-13,31.6810345 Z" id="Fill-3"></path>
                            <path d="M9.33333333,7.29700296 C10.4558506,7.29700296 11.3698167,8.21033281 11.3698167,9.33296742 C11.3698167,10.455602 10.4558506,11.3696637 9.33333333,11.3696637 C8.21081608,11.3696637 7.29684995,10.455602 7.29684995,9.33296742 C7.29684995,8.21033281 8.21081608,7.29700296 9.33333333,7.29700296 M9.33333333,12.8333333 C11.26298,12.8333333 12.8333333,11.2635477 12.8333333,9.33296742 C12.8333333,7.40385085 11.26298,5.83333333 9.33333333,5.83333333 C7.40368667,5.83333333 5.83333333,7.40385085 5.83333333,9.33296742 C5.83333333,11.2635477 7.40368667,12.8333333 9.33333333,12.8333333" id="Fill-5"></path>
                        </g>
                    </g>
                </g>
            </g>
        </g>
    </g>
</svg>
