<?xml version="1.0" encoding="UTF-8"?>
<svg width="99px" height="35px" viewBox="0 0 99 35" version="1.1" xmlns="http://www.w3.org/2000/svg" xmlns:xlink="http://www.w3.org/1999/xlink">
    <!-- Generator: Sketch 52.2 (67145) - http://www.bohemiancoding.com/sketch -->
    <title>Group 444</title>
    <desc>Created with Sketch.</desc>
    <g id="Symbols" stroke="none" stroke-width="1" fill="none" fill-rule="evenodd">
        <g id="Group-444" transform="translate(0.000000, -1.000000)" fill="#B42741">
            <g id="Group-443">
                <g transform="translate(0.000000, 0.280000)">
                    <path d="M4.3311,15.7346 L6.2841,10.3806 L6.4831,10.3786 L8.4371,15.7346 L4.3311,15.7346 Z M7.5311,7.8786 L7.5131,7.8436 L5.2501,7.8436 L0.1571,21.1486 L2.3571,21.1486 L3.7211,17.4076 L9.0461,17.4056 L10.4111,21.1486 L12.6111,21.1486 L7.5311,7.8786 Z" id="Fill-411"></path>
                    <polygon id="Fill-413" points="40.1284 21.1512 48.4094 21.1512 48.4094 19.3452 42.0564 19.3452 42.0564 15.2062 47.7474 15.2062 47.7474 13.5202 42.0564 13.5202 42.0564 9.6572 48.4094 9.6572 48.4094 7.8512 40.1284 7.8512"></polygon>
                    <polygon id="Fill-415" points="29.0034 16.3474 24.4354 7.8794 24.4194 7.8514 22.5134 7.8514 22.5134 21.1514 24.4414 21.1514 24.4414 11.4914 28.0464 18.1734 28.0614 18.2014 29.9454 18.2014 33.5654 11.4914 33.5654 21.1514 35.4934 21.1514 35.4934 7.8514 33.5874 7.8514"></polygon>
                    <polygon id="Fill-417" points="16.062 21.151 17.99 21.151 17.99 7.851 16.062 7.851"></polygon>
                    <polygon id="Fill-419" points="16.062 3.8347 16.062 6.2307 19.21 3.2267 19.21 0.8307"></polygon>
                    <path d="M54.5723,13.6292 L54.5723,9.5312 L57.3093,9.5312 C58.2823,9.5312 58.9603,9.8532 59.3643,10.4692 C59.7253,11.0202 59.7613,11.8772 59.4333,12.5442 C59.0623,13.2972 58.2673,13.6272 57.2603,13.6272 L54.5723,13.6292 Z M57.6483,15.2582 C59.8843,15.1392 61.6073,13.8282 61.6073,11.5382 C61.6073,9.5072 60.0373,7.8192 57.3533,7.8192 L52.6433,7.8192 L52.6433,21.1512 L54.5723,21.1512 L54.5723,15.2852 L55.3793,15.2852 L60.2323,21.1512 L62.5263,21.1512 L57.6483,15.2582 Z" id="Fill-420"></path>
                    <polygon id="Fill-421" points="89.9619 10.1277 91.0429 10.0287 91.0429 9.5337 94.3079 9.5337 94.3079 10.1277 95.3889 10.0287 95.3889 9.5337 98.7949 9.5337 98.7949 8.5397 95.3889 8.5397 95.3889 7.8227 94.3079 7.8227 94.3079 8.5397 91.0429 8.5397 91.0429 7.8227 89.9619 7.8227 89.9619 8.5397 86.5329 8.5397 86.5329 9.5337 89.9619 9.5337"></polygon>
                    <path d="M88.1484,19.97 L88.8994,20.745 C89.9904,19.684 90.6994,18.229 90.8014,18.018 L89.8424,17.575 C89.7494,17.768 89.1064,19.04 88.1484,19.97" id="Fill-422"></path>
                    <path d="M89,13.6136 L89,12.9586 L95.436,12.9586 L95.436,12.0616 L89,12.0616 L89,11.4776 L96.328,11.4776 L96.328,13.6136 L89,13.6136 Z M98.635,19.0856 L98.956,18.0656 C97.525,17.6216 96.552,16.9116 95.986,16.3936 L95.942,16.3536 L98.795,16.3536 L98.795,15.2846 L91.663,15.2846 L91.684,15.2506 C91.763,15.1136 91.855,14.9256 91.958,14.6956 L91.965,14.6816 L97.408,14.6816 L97.408,10.4086 L87.919,10.4086 L87.919,14.6816 L90.757,14.6816 L90.739,14.7156 C90.646,14.8986 90.532,15.0866 90.4,15.2756 L90.394,15.2846 L86.533,15.2846 L86.533,16.3536 L89.449,16.3536 L89.404,16.3936 C88.563,17.1566 87.481,17.8096 86.187,18.3346 L86.595,19.3236 C87.814,18.8286 88.872,18.2246 89.737,17.5266 L89.761,17.5086 C90.204,17.1476 90.598,16.7626 90.932,16.3616 L90.937,16.3536 L94.486,16.3536 L94.493,16.3626 C94.664,16.5876 95.043,17.0386 95.668,17.5366 L95.692,17.5556 L95.666,17.5736 L94.911,18.0936 L96.717,20.6566 L97.604,20.0456 L96.028,17.8086 L96.135,17.8826 C96.883,18.3986 97.724,18.8026 98.635,19.0856 Z" id="Fill-423"></path>
                    <polygon id="Fill-424" points="91.606 21.137 92.687 21.137 92.687 16.875 91.606 16.875"></polygon>
                    <polygon id="Fill-425" points="93.0166 18.0359 94.3576 20.5949 95.3176 20.1039 93.9766 17.5439"></polygon>
                    <path d="M73.5762,9.5711 C74.4542,9.5421 75.3392,9.5041 76.2062,9.4581 L76.2922,9.4531 L75.9002,9.7101 L76.9182,11.2301 L73.7882,11.2301 L74.3972,10.8151 L73.5332,9.5721 L73.5762,9.5711 Z M77.0382,9.4111 C78.2162,9.3421 79.3562,9.2581 80.4262,9.1641 L80.4732,9.1591 L80.4472,9.2001 C80.2002,9.5801 79.5552,10.5381 78.9112,11.2221 L78.9042,11.2301 L77.3192,11.2301 L77.9412,10.8231 L76.9982,9.4141 L77.0382,9.4111 Z M72.2272,12.2981 L81.3642,12.2981 L81.3642,13.1011 L82.4452,12.9271 L82.4452,11.2301 L80.3202,11.2301 L80.3492,11.1921 C80.9342,10.4481 81.4012,9.7101 81.4842,9.5771 L80.7512,9.1341 L80.8212,9.1281 C81.6662,9.0501 82.1802,8.9901 82.3012,8.9761 L82.1712,7.8871 C81.2222,8.0251 77.1602,8.4661 71.3952,8.5591 L71.4152,9.6271 C71.9172,9.6181 72.4312,9.6061 72.9872,9.5901 L73.0662,9.5881 L72.5002,9.9721 L73.3742,11.2301 L71.1462,11.2301 L71.1462,13.1011 L72.2272,12.9271 L72.2272,12.2981 Z" id="Fill-426"></path>
                    <path d="M77.4775,18.2669 L77.4665,18.2599 C76.7285,17.8239 76.0795,17.3349 75.5375,16.8069 L75.4975,16.7669 L79.7745,16.7669 L79.7255,16.8079 C79.1105,17.3249 78.3575,17.8129 77.4895,18.2609 L77.4775,18.2669 Z M78.6615,18.8809 L78.6205,18.8629 L78.6595,18.8399 C80.6195,17.7079 81.3875,16.6679 81.4765,16.5409 L81.0215,15.6989 L74.7445,15.6989 L74.7615,15.6639 C74.9145,15.3699 75.0555,15.0689 75.1825,14.7719 L75.1895,14.7579 L82.4215,14.7579 L82.4215,13.6899 L75.5925,13.6899 L75.6015,13.6599 C75.7425,13.2269 75.8185,12.8859 75.8385,12.7919 L74.7795,12.5799 C74.7565,12.6749 74.6555,13.1149 74.4515,13.6749 L74.4465,13.6899 L71.1235,13.6899 L71.1235,14.7579 L73.9995,14.7579 L73.9845,14.7909 C73.3765,16.0719 72.2495,17.8929 70.3275,19.3069 L70.9705,20.1659 C72.1825,19.2749 73.2275,18.1569 74.0785,16.8439 L74.0955,16.8169 L74.1165,16.8429 C74.4175,17.2299 75.1005,17.9979 76.2725,18.7879 L76.3075,18.8119 L76.2685,18.8289 C74.9595,19.3779 73.4675,19.8309 71.8325,20.1749 L72.0565,21.2199 C74.0715,20.7959 75.8745,20.2129 77.4205,19.4859 L77.4315,19.4809 L77.4415,19.4859 C78.9095,20.2609 80.6175,20.8169 82.5195,21.1399 L83.0105,20.1359 C81.4075,19.8879 79.9435,19.4659 78.6615,18.8809 Z" id="Fill-427"></path>
                    <path d="M0.9126,31.2576 L0.9126,32.4466 C0.9576,32.4466 1.0196,32.4536 1.0996,32.4656 L1.2726,32.4656 C1.6526,32.4656 1.9496,32.4246 2.1616,32.3416 C2.3746,32.2586 2.4806,32.0886 2.4806,31.8286 C2.4806,31.6026 2.3896,31.4516 2.2066,31.3736 C2.0246,31.2966 1.7726,31.2576 1.4526,31.2576 L0.9126,31.2576 Z M0.1776,30.5966 L1.5276,30.5966 C2.6586,30.5966 3.2236,31.0036 3.2236,31.8166 C3.2286,32.3386 3.0446,32.6886 2.6726,32.8666 C2.2996,33.0446 1.8236,33.1336 1.2426,33.1336 C1.1876,33.1336 1.1276,33.1316 1.0626,33.1276 C0.9976,33.1226 0.9476,33.1186 0.9126,33.1146 L0.9126,34.7286 L0.1776,34.7286 L0.1776,30.5966 Z" id="Fill-428"></path>
                    <polygon id="Fill-429" points="7.2896 34.7322 7.2896 30.6052 9.9986 30.6052 9.9986 31.2652 8.0246 31.2652 8.0246 32.3012 9.7736 32.3012 9.7736 32.9682 8.0246 32.9682 8.0246 34.0642 9.9986 34.0642 9.9986 34.7322"></polygon>
                    <path d="M14.7397,31.2654 L14.7397,32.4504 C14.8647,32.4664 14.9847,32.4734 15.0997,32.4734 C15.4797,32.4734 15.7767,32.4324 15.9887,32.3494 C16.2017,32.2664 16.3077,32.0964 16.3077,31.8364 C16.3077,31.6104 16.2167,31.4584 16.0337,31.3814 C15.8517,31.3044 15.5997,31.2654 15.2807,31.2654 L14.7397,31.2654 Z M14.0047,30.6044 L15.3547,30.6044 C16.4857,30.6044 17.0507,31.0104 17.0507,31.8204 C17.0507,32.4054 16.7457,32.8014 16.1357,33.0064 L17.1717,34.7324 L16.3387,34.7324 L15.3927,33.1254 L15.0697,33.1254 L14.7397,33.1254 L14.7397,34.7324 L14.0047,34.7324 L14.0047,30.6044 Z" id="Fill-430"></path>
                    <path d="M22.6934,31.2576 C22.4374,31.2576 22.2374,31.3026 22.0924,31.3926 C21.9474,31.4836 21.8754,31.6056 21.8754,31.7606 C21.8754,31.8906 21.9414,31.9936 22.0734,32.0686 C22.2064,32.1426 22.4154,32.2256 22.7004,32.3156 C22.9904,32.4056 23.2294,32.4936 23.4174,32.5786 C23.6054,32.6636 23.7664,32.7886 23.9014,32.9536 C24.0364,33.1186 24.1034,33.3286 24.1034,33.5836 C24.1034,33.7946 24.0464,33.9906 23.9314,34.1736 C23.8164,34.3556 23.6304,34.5056 23.3724,34.6236 C23.1144,34.7406 22.7854,34.7996 22.3854,34.7996 C22.1504,34.7996 21.9354,34.7766 21.7404,34.7286 C21.5444,34.6816 21.3174,34.6066 21.0574,34.5076 L20.9594,34.4626 L21.2074,33.7946 L21.3194,33.8396 C21.7754,34.0086 22.1504,34.0936 22.4454,34.0936 C22.7154,34.0936 22.9334,34.0486 23.0984,33.9556 C23.2634,33.8626 23.3454,33.7396 23.3454,33.5836 C23.3504,33.4336 23.2854,33.3206 23.1514,33.2426 C23.0154,33.1646 22.7984,33.0806 22.4974,32.9906 C22.2134,32.9016 21.9774,32.8146 21.7924,32.7286 C21.6074,32.6426 21.4494,32.5196 21.3194,32.3566 C21.1894,32.1946 21.1244,31.9856 21.1244,31.7306 C21.1244,31.5056 21.1874,31.3056 21.3124,31.1306 C21.4374,30.9546 21.6174,30.8176 21.8524,30.7166 C22.0874,30.6176 22.3604,30.5676 22.6704,30.5676 C22.9354,30.5676 23.1604,30.5886 23.3454,30.6316 C23.5314,30.6736 23.7114,30.7246 23.8864,30.7846 L23.9684,30.8146 L23.7284,31.4836 C23.5384,31.4076 23.3614,31.3516 23.1994,31.3146 C23.0364,31.2766 22.8684,31.2576 22.6934,31.2576" id="Fill-431"></path>
                    <path d="M29.4492,31.2351 C29.2282,31.2351 29.0232,31.2841 28.8332,31.3811 C28.6432,31.4791 28.4892,31.6311 28.3682,31.8391 C28.2482,32.0471 28.1882,32.3081 28.1882,32.6231 C28.1882,32.9191 28.2452,33.1771 28.3612,33.4001 C28.4762,33.6231 28.6342,33.7941 28.8332,33.9141 C29.0332,34.0341 29.2562,34.0941 29.5012,34.0941 C29.7172,34.0941 29.9202,34.0441 30.1132,33.9441 C30.3052,33.8441 30.4622,33.6871 30.5822,33.4711 C30.7022,33.2561 30.7622,32.9891 30.7622,32.6681 C30.7622,32.3431 30.6972,32.0731 30.5672,31.8591 C30.4372,31.6421 30.2712,31.4851 30.0722,31.3851 C29.8712,31.2851 29.6642,31.2351 29.4492,31.2351 M29.4792,30.5521 C29.8592,30.5521 30.2032,30.6371 30.5112,30.8071 C30.8182,30.9771 31.0622,31.2201 31.2422,31.5351 C31.4232,31.8511 31.5122,32.2161 31.5122,32.6311 C31.5122,33.0471 31.4242,33.4181 31.2462,33.7451 C31.0682,34.0721 30.8232,34.3281 30.5112,34.5101 C30.1982,34.6931 29.8462,34.7851 29.4562,34.7851 C29.1062,34.7851 28.7772,34.7041 28.4702,34.5401 C28.1622,34.3781 27.9132,34.1371 27.7232,33.8171 C27.5332,33.4961 27.4372,33.1141 27.4372,32.6681 C27.4372,32.2531 27.5282,31.8861 27.7082,31.5651 C27.8882,31.2451 28.1332,30.9971 28.4442,30.8181 C28.7532,30.6411 29.0982,30.5521 29.4792,30.5521" id="Fill-432"></path>
                    <polygon id="Fill-433" points="34.6104 30.6048 35.4884 30.6048 37.4844 33.6658 37.4844 30.6048 38.2274 30.6048 38.2274 34.7318 37.3344 34.7318 35.3454 31.6628 35.3454 34.7318 34.6104 34.7318"></polygon>
                    <path d="M43.8691,32.9842 L43.3431,31.4372 L42.8181,32.9842 L43.8691,32.9842 Z M43.0061,30.6052 L43.7191,30.6052 L45.2721,34.7322 L44.5291,34.7322 L44.1091,33.6432 L42.5851,33.6432 L42.1731,34.7322 L41.4521,34.7322 L43.0061,30.6052 Z" id="Fill-434"></path>
                    <polygon id="Fill-435" points="48.9556 30.6048 49.6906 30.6048 49.6906 34.0638 51.6566 34.0638 51.6566 34.7318 48.9556 34.7318"></polygon>
                    <polygon id="Fill-436" points="55.535 34.732 56.27 34.732 56.27 30.605 55.535 30.605"></polygon>
                    <polygon id="Fill-437" points="60.9668 30.6048 64.0208 30.6048 64.0208 31.0478 61.8148 34.0638 64.0358 34.0638 64.0358 34.7318 60.8238 34.7318 60.8238 34.2748 62.9698 31.2658 60.9668 31.2658"></polygon>
                    <path d="M69.96,32.9842 L69.435,31.4372 L68.909,32.9842 L69.96,32.9842 Z M69.097,30.6052 L69.81,30.6052 L71.363,34.7322 L70.62,34.7322 L70.2,33.6432 L68.677,33.6432 L68.264,34.7322 L67.544,34.7322 L69.097,30.6052 Z" id="Fill-438"></path>
                    <polygon id="Fill-439" points="74.5098 30.6048 77.9478 30.6048 77.9478 31.2658 76.5968 31.2658 76.5968 34.7318 75.8618 34.7318 75.8618 31.2658 74.5098 31.2658"></polygon>
                    <polygon id="Fill-440" points="82.637 34.732 83.371 34.732 83.371 30.605 82.637 30.605"></polygon>
                    <path d="M89.7529,31.2351 C89.5319,31.2351 89.3269,31.2841 89.1379,31.3811 C88.9469,31.4791 88.7929,31.6311 88.6729,31.8391 C88.5519,32.0471 88.4919,32.3081 88.4919,32.6231 C88.4919,32.9191 88.5499,33.1771 88.6649,33.4001 C88.7799,33.6231 88.9379,33.7941 89.1379,33.9141 C89.3379,34.0341 89.5609,34.0941 89.8059,34.0941 C90.0209,34.0941 90.2249,34.0441 90.4169,33.9441 C90.6089,33.8441 90.7659,33.6871 90.8859,33.4711 C91.0059,33.2561 91.0659,32.9891 91.0659,32.6681 C91.0659,32.3431 91.0009,32.0731 90.8709,31.8591 C90.7409,31.6421 90.5759,31.4851 90.3759,31.3851 C90.1759,31.2851 89.9679,31.2351 89.7529,31.2351 M89.7829,30.5521 C90.1629,30.5521 90.5069,30.6371 90.8149,30.8071 C91.1219,30.9771 91.3659,31.2201 91.5469,31.5351 C91.7269,31.8511 91.8159,32.2161 91.8159,32.6311 C91.8159,33.0471 91.7279,33.4181 91.5509,33.7451 C91.3719,34.0721 91.1269,34.3281 90.8149,34.5101 C90.5019,34.6931 90.1499,34.7851 89.7609,34.7851 C89.4099,34.7851 89.0809,34.7041 88.7739,34.5401 C88.4659,34.3781 88.2169,34.1371 88.0269,33.8171 C87.8369,33.4961 87.7419,33.1141 87.7419,32.6681 C87.7419,32.2531 87.8319,31.8861 88.0119,31.5651 C88.1919,31.2451 88.4379,30.9971 88.7479,30.8181 C89.0579,30.6411 89.4019,30.5521 89.7829,30.5521" id="Fill-441"></path>
                    <polygon id="Fill-442" points="94.7461 30.6048 95.6241 30.6048 97.6201 33.6658 97.6201 30.6048 98.3621 30.6048 98.3621 34.7318 97.4701 34.7318 95.4811 31.6628 95.4811 34.7318 94.7461 34.7318"></polygon>
                </g>
            </g>
        </g>
    </g>
</svg>