<?xml version="1.0" encoding="UTF-8" standalone="no"?>
<svg width="18px" height="16px" viewBox="0 0 18 16" version="1.1" xmlns="http://www.w3.org/2000/svg" xmlns:xlink="http://www.w3.org/1999/xlink">
    <!-- Generator: Sketch 42 (36781) - http://www.bohemiancoding.com/sketch -->
    <title>Path</title>
    <desc>Created with Sketch.</desc>
    <defs>
        <path d="M9,3.6039398 C8.26928675,1.83934908 6.61572052,1.03915331 5.12227074,1.03915331 C2.41484716,1.03915331 1,3.21240671 1,5.35849749 C1,7.51168482 2.35953421,9.85843631 4.93304221,12.141319 C6.86317322,13.8520739 8.75836972,14.9141074 8.83988355,14.9583996 C8.88646288,14.9850728 8.94468705,15 9,15 C9.06113537,15 9.12518195,14.9828704 9.1775837,14.9483666 C9.19796215,14.9361312 11.1484716,13.6589991 13.0727802,11.8138994 C15.6783115,9.31763122 17,7.02226844 17,4.99143521 C17,3.0090542 15.6142649,1 12.9708879,1 C11.4366812,1 9.73944687,1.81243118 9,3.6039398 Z" id="path-1"></path>
        <mask id="mask-2" maskContentUnits="userSpaceOnUse" maskUnits="objectBoundingBox" x="-1" y="-1" width="18" height="16">
            <rect x="0" y="0" width="18" height="16" fill="white"></rect>
            <use xlink:href="#path-1" fill="black"></use>
        </mask>
    </defs>
    <g id="Page-1" stroke="none" stroke-width="1" fill="none" fill-rule="evenodd">
        <use id="Path" stroke="#BEA47A" mask="url(#mask-2)" stroke-width="2" xlink:href="#path-1"></use>
    </g>
</svg>