<?xml version="1.0" encoding="UTF-8"?>
<svg width="15px" height="13px" viewBox="0 0 15 13" version="1.1" xmlns="http://www.w3.org/2000/svg" xmlns:xlink="http://www.w3.org/1999/xlink">
    <!-- Generator: Sketch 52.2 (67145) - http://www.bohemiancoding.com/sketch -->
    <title>icon_online</title>
    <desc>Created with Sketch.</desc>
    <g id="Page-1" stroke="none" stroke-width="1" fill="none" fill-rule="evenodd">
        <g id="定制商品详情页面—默认" transform="translate(-153.000000, -785.000000)">
            <g id="Group-26" transform="translate(0.000000, 675.000000)">
                <g id="Group-21" transform="translate(0.000000, 91.000000)">
                    <g id="Group-5" transform="translate(153.000000, 17.000000)">
                        <g id="icon_online" transform="translate(0.000000, 2.000000)">
                            <path d="M14.5,10.1145251 L14.5,0.5 L0.5,0.5 L0.5,10.1145251 L4.55357143,10.1145251 C4.98237097,10.1145251 5.32142857,10.4681048 5.32142857,10.8938547 L5.32142857,11.7320514 L6.60481146,10.357831 C6.74933194,10.2031336 6.95041183,10.1145251 7.16223214,10.1145251 L14.5,10.1145251 Z" id="Fill-1" stroke="#BEA47A"></path>
                            <path d="M4.16666667,6.14096745 C4.51305556,6.14096745 4.79472222,5.86370182 4.79472222,5.5229987 C4.79472222,5.18229557 4.51305556,4.90475651 4.16666667,4.90475651 C3.82027778,4.90475651 3.53861111,5.18229557 3.53861111,5.5229987 C3.53861111,5.86370182 3.82027778,6.14096745 4.16666667,6.14096745" id="Fill-3" fill="#BEA47A"></path>
                            <path d="M10.8333333,6.14096745 C11.1797222,6.14096745 11.4613889,5.86370182 11.4613889,5.5229987 C11.4613889,5.18229557 11.1797222,4.90475651 10.8333333,4.90475651 C10.4869444,4.90475651 10.2052778,5.18229557 10.2052778,5.5229987 C10.2052778,5.86370182 10.4869444,6.14096745 10.8333333,6.14096745" id="Fill-5" fill="#BEA47A"></path>
                            <path d="M7.5,6.14096745 C7.84638889,6.14096745 8.12805556,5.86370182 8.12805556,5.5229987 C8.12805556,5.18229557 7.84638889,4.90475651 7.5,4.90475651 C7.15361111,4.90475651 6.87194444,5.18229557 6.87194444,5.5229987 C6.87194444,5.86370182 7.15361111,6.14096745 7.5,6.14096745" id="Fill-7" fill="#BEA47A"></path>
                        </g>
                    </g>
                </g>
            </g>
        </g>
    </g>
</svg>