<?xml version="1.0" encoding="UTF-8" standalone="no"?>
<svg width="17px" height="16px" viewBox="0 0 17 16" version="1.1" xmlns="http://www.w3.org/2000/svg" xmlns:xlink="http://www.w3.org/1999/xlink">
    <!-- Generator: Sketch 44.1 (41455) - http://www.bohemiancoding.com/sketch -->
    <title>Page 1</title>
    <desc>Created with Sketch.</desc>
    <defs>
        <polygon id="path-1" points="0 8.73398348 0 0 16.8912 0 16.8912 8.73398348 1.25424798e-15 8.73398348"></polygon>
    </defs>
    <g id="Page-1" stroke="none" stroke-width="1" fill="none" fill-rule="evenodd">
        <g id="右上角更多展开" transform="translate(-213.000000, -57.000000)">
            <g id="Active-Icon" transform="translate(213.000000, 57.000000)">
                <g id="Page-1">
                    <path d="M14.35752,8.45217391 C14.2018394,8.45217391 14.076,8.57839304 14.076,8.73391304 L14.076,15.213913 L10.69776,15.213913 L10.69776,10.1426087 L6.19344,10.1426087 L6.19344,15.213913 L2.8152,15.213913 L2.8152,8.73391304 C2.8152,8.57839304 2.68936056,8.45217391 2.53368,8.45217391 C2.37799944,8.45217391 2.25216,8.57839304 2.25216,8.73391304 L2.25216,15.7773913 L6.75648,15.7773913 L6.75648,10.706087 L10.13472,10.706087 L10.13472,15.7773913 L14.63904,15.7773913 L14.63904,8.73391304 C14.63904,8.57839304 14.5132006,8.45217391 14.35752,8.45217391" id="Fill-1" stroke="#333333" stroke-width="0.25" fill="#333333"></path>
                    <g id="Group-5">
                        <mask id="mask-2" fill="white">
                            <use xlink:href="#path-1"></use>
                        </mask>
                        <g id="Clip-4"></g>
                        <path d="M16.8087146,8.25298435 L8.64463464,0.0825495652 C8.53456032,-0.0276104348 8.35663968,-0.0276104348 8.24656536,0.0825495652 L0.08248536,8.25298435 C-0.02758896,8.36286261 -0.02758896,8.54148522 0.08248536,8.65136348 C0.19255968,8.76152348 0.37048032,8.76152348 0.48055464,8.65136348 L8.4456,0.680118261 L16.4106454,8.65136348 C16.4655418,8.70630261 16.5376109,8.73391304 16.60968,8.73391304 C16.6817491,8.73391304 16.7538182,8.70630261 16.8087146,8.65136348 C16.918789,8.54148522 16.918789,8.36286261 16.8087146,8.25298435" id="Fill-3" stroke="#333333" stroke-width="0.25" fill="#333333" mask="url(#mask-2)"></path>
                    </g>
                </g>
            </g>
        </g>
    </g>
</svg>