<?xml version="1.0" encoding="UTF-8"?>
<svg width="16px" height="22px" viewBox="0 0 16 22" version="1.1" xmlns="http://www.w3.org/2000/svg" xmlns:xlink="http://www.w3.org/1999/xlink">
    <!-- Generator: Sketch 52.2 (67145) - http://www.bohemiancoding.com/sketch -->
    <title>Group 22</title>
    <desc>Created with Sketch.</desc>
    <g id="Page-1" stroke="none" stroke-width="1" fill="none" fill-rule="evenodd">
        <g id="我的订单—订单详情" transform="translate(-15.000000, -78.000000)" fill="#000000">
            <g id="Group-23" transform="translate(0.000000, 46.000000)">
                <g id="Group-22" transform="translate(15.000000, 32.000000)">
                    <path d="M8,21.01011 C6.58590476,19.12031 0.761904762,11.1291767 0.761904762,7.70011 C0.761904762,3.85854333 4.0087619,0.733443333 8,0.733443333 C11.9912381,0.733443333 15.2380952,3.85854333 15.2380952,7.70011 C15.2380952,11.1291767 9.41409524,19.12031 8,21.01011 M8,0.00011 C3.58895238,0.00011 0,3.45447667 0,7.70011 C0,11.82401 7.37980952,21.4442433 7.69409524,21.85161 C7.76609524,21.94511 7.87961905,22.00011 8,22.00011 C8.12038095,22.00011 8.23390476,21.94511 8.30590476,21.85161 C8.62019048,21.4442433 16,11.82401 16,7.70011 C16,3.45447667 12.4110476,0.00011 8,0.00011" id="Fill-1"></path>
                    <path d="M8,10.2666667 C6.52990476,10.2666667 5.33333333,9.11533333 5.33333333,7.7 C5.33333333,6.28466667 6.52990476,5.13333333 8,5.13333333 C9.47009524,5.13333333 10.6666667,6.28466667 10.6666667,7.7 C10.6666667,9.11533333 9.47009524,10.2666667 8,10.2666667 M8,4.4 C6.10933333,4.4 4.57142857,5.8806 4.57142857,7.7 C4.57142857,9.5194 6.10933333,11 8,11 C9.89066667,11 11.4285714,9.5194 11.4285714,7.7 C11.4285714,5.8806 9.89066667,4.4 8,4.4" id="Fill-3"></path>
                </g>
            </g>
        </g>
    </g>
</svg>