<?xml version="1.0" encoding="UTF-8" standalone="no"?>
<svg width="27px" height="27px" viewBox="0 0 27 27" version="1.1" xmlns="http://www.w3.org/2000/svg" xmlns:xlink="http://www.w3.org/1999/xlink">
    <!-- Generator: Sketch 44.1 (41455) - http://www.bohemiancoding.com/sketch -->
    <title>Page 1</title>
    <desc>Created with Sketch.</desc>
    <defs></defs>
    <g id="Page-1" stroke="none" stroke-width="1" fill="none" fill-rule="evenodd">
        <g id="用户中心—首页" transform="translate(-264.000000, -300.000000)" fill="#BEA47A">
            <path d="M291,313.95 C291,312.4425 289.9542,311.4282 288.3,311.27295 L288.3,310.66275 C288.3,309.31275 287.2533,308.2386 285.8718,308.1126 C285.64635,303.6018 281.98335,300 277.5,300 C273.00585,300 269.19885,303.6846 268.97205,308.13375 C267.66885,308.32365 266.7,309.36495 266.7,310.66275 L266.7,311.27295 C265.0458,311.4282 264,312.4425 264,313.95 C264,315.4575 265.0458,316.47225 266.7,316.62705 L266.7,317.4717 C266.7,319.01655 267.60855,319.8 269.4,319.8 L271.65,319.8 C271.8984,319.8 272.1,319.5984 272.1,319.35 L272.1,308.55 C272.1,308.3016 271.8984,308.1 271.65,308.1 L269.8734,308.1 C270.11685,304.15395 273.5049,300.9 277.5,300.9 C281.4132,300.9 284.7324,304.15395 284.97045,308.1 L283.35,308.1 C283.1016,308.1 282.9,308.3016 282.9,308.55 L282.9,319.35 C282.9,319.5984 283.1016,319.8 283.35,319.8 L285.6,319.8 C285.78765,319.8 285.96,319.7865 286.1283,319.7694 L286.1283,320.8764 C286.1283,322.81815 284.54835,324.3981 282.6066,324.3981 L280.7382,324.3981 C280.5303,323.427 279.6672,322.69575 278.63445,322.69575 C277.44825,322.69575 276.48255,323.661 276.48255,324.8481 C276.48255,326.03475 277.44825,327 278.63445,327 C279.66675,327 280.5303,326.2692 280.7382,325.2981 L282.6066,325.2981 C285.0447,325.2981 287.0283,323.3145 287.0283,320.8764 L287.0283,319.55475 C287.86665,319.2168 288.3,318.52605 288.3,317.4717 L288.3,316.62705 C289.9542,316.47225 291,315.4575 291,313.95 L291,313.95 Z" id="Page-1"></path>
        </g>
    </g>
</svg>