<?xml version="1.0" encoding="UTF-8"?>
<svg width="16px" height="16px" viewBox="0 0 16 16" version="1.1" xmlns="http://www.w3.org/2000/svg" xmlns:xlink="http://www.w3.org/1999/xlink">
    <!-- Generator: Sketch 52.2 (67145) - http://www.bohemiancoding.com/sketch -->
    <title>icon_share</title>
    <desc>Created with Sketch.</desc>
    <g id="Page-1" stroke="none" stroke-width="1" fill="none" fill-rule="evenodd">
        <g id="定制商品详情页面—默认" transform="translate(-290.000000, -783.000000)" fill="#BEA47A" stroke="#BEA47A" stroke-width="0.5859375">
            <g id="Group-26" transform="translate(0.000000, 675.000000)">
                <g id="Group-21" transform="translate(0.000000, 91.000000)">
                    <g id="Group-2" transform="translate(291.000000, 17.000000)">
                        <path d="M11.4333333,14.5333333 C10.2755333,14.5333333 9.33333333,13.5911333 9.33333333,12.4333333 C9.33333333,11.2755333 10.2755333,10.3333333 11.4333333,10.3333333 C12.5911333,10.3333333 13.5333333,11.2755333 13.5333333,12.4333333 C13.5333333,13.5911333 12.5911333,14.5333333 11.4333333,14.5333333 M2.56666667,10.1 C1.40886667,10.1 0.466666667,9.1578 0.466666667,8 C0.466666667,6.8422 1.40886667,5.9 2.56666667,5.9 C3.72446667,5.9 4.66666667,6.8422 4.66666667,8 C4.66666667,9.1578 3.72446667,10.1 2.56666667,10.1 M11.4333333,1.46666667 C12.5911333,1.46666667 13.5333333,2.40886667 13.5333333,3.56666667 C13.5333333,4.72446667 12.5911333,5.66666667 11.4333333,5.66666667 C10.2755333,5.66666667 9.33333333,4.72446667 9.33333333,3.56666667 C9.33333333,2.40886667 10.2755333,1.46666667 11.4333333,1.46666667 M11.4333333,9.86666667 C10.5485333,9.86666667 9.76686667,10.3167667 9.3051,10.9999667 L4.9189,9.02386667 C5.0561,8.7098 5.13333333,8.364 5.13333333,8 C5.13333333,7.6416 5.05913333,7.30046667 4.92566667,6.99036667 L9.20033333,4.8276 C9.64156667,5.606 10.4762,6.13333333 11.4333333,6.13333333 C12.8485,6.13333333 14,4.98183333 14,3.56666667 C14,2.1515 12.8485,1 11.4333333,1 C10.0181667,1 8.86666667,2.1515 8.86666667,3.56666667 C8.86666667,3.85926667 8.91823333,4.13926667 9.00876667,4.40153333 L4.70306667,6.58016667 C4.24246667,5.8895 3.45706667,5.43333333 2.56666667,5.43333333 C1.1515,5.43333333 0,6.58483333 0,8 C0,9.41516667 1.1515,10.5666667 2.56666667,10.5666667 C3.451,10.5666667 4.23243333,10.1170333 4.6942,9.4343 L9.08063333,11.4104 C8.94366667,11.7242333 8.86666667,12.0698 8.86666667,12.4333333 C8.86666667,13.8485 10.0181667,15 11.4333333,15 C12.8485,15 14,13.8485 14,12.4333333 C14,11.0181667 12.8485,9.86666667 11.4333333,9.86666667" id="icon_share"></path>
                    </g>
                </g>
            </g>
        </g>
    </g>
</svg>