<?xml version="1.0" encoding="UTF-8"?>
<svg width="18px" height="15px" viewBox="0 0 18 15" version="1.1" xmlns="http://www.w3.org/2000/svg" xmlns:xlink="http://www.w3.org/1999/xlink">
    <!-- Generator: Sketch 52.2 (67145) - http://www.bohemiancoding.com/sketch -->
    <title>kefu</title>
    <desc>Created with Sketch.</desc>
    <g id="Page-1" stroke="none" stroke-width="1" fill="none" fill-rule="evenodd">
        <g id="定制首页" transform="translate(-26.000000, -7579.000000)">
            <g id="Group-11" transform="translate(0.000000, 7501.000000)">
                <g id="kefu" transform="translate(26.000000, 78.000000)">
                    <g id="Page-1">
                        <path d="M17.5,11.747529 L17.5,0.5 L0.5,0.5 L0.5,11.747529 L5.46428571,11.747529 C5.91816134,11.747529 6.28571429,12.1160823 6.28571429,12.5698324 L6.28571429,13.7675552 L8.00560218,11.9967657 C8.16038505,11.8374556 8.37261922,11.747529 8.59467857,11.747529 L17.5,11.747529 Z" id="Fill-1" stroke="#BEA47A" fill="#BEA47A"></path>
                        <path d="M5,7.08573167 C5.41566667,7.08573167 5.75366667,6.7658098 5.75366667,6.37269081 C5.75366667,5.97957181 5.41566667,5.65933444 5,5.65933444 C4.58433333,5.65933444 4.24633333,5.97957181 4.24633333,6.37269081 C4.24633333,6.7658098 4.58433333,7.08573167 5,7.08573167" id="Fill-3" fill="#FFFFFF"></path>
                        <path d="M13,7.08573167 C13.4156667,7.08573167 13.7536667,6.7658098 13.7536667,6.37269081 C13.7536667,5.97957181 13.4156667,5.65933444 13,5.65933444 C12.5843333,5.65933444 12.2463333,5.97957181 12.2463333,6.37269081 C12.2463333,6.7658098 12.5843333,7.08573167 13,7.08573167" id="Fill-5" fill="#FFFFFF"></path>
                        <path d="M9,7.08573167 C9.41566667,7.08573167 9.75366667,6.7658098 9.75366667,6.37269081 C9.75366667,5.97957181 9.41566667,5.65933444 9,5.65933444 C8.58433333,5.65933444 8.24633333,5.97957181 8.24633333,6.37269081 C8.24633333,6.7658098 8.58433333,7.08573167 9,7.08573167" id="Fill-7" fill="#FFFFFF"></path>
                    </g>
                </g>
            </g>
        </g>
    </g>
</svg>