<?xml version="1.0" encoding="utf-8"?>
<!-- Generator: Adobe Illustrator 17.0.0, SVG Export Plug-In . SVG Version: 6.00 Build 0)  -->
<!DOCTYPE svg PUBLIC "-//W3C//DTD SVG 1.1//EN" "http://www.w3.org/Graphics/SVG/1.1/DTD/svg11.dtd">
<svg version="1.1" id="图层_1" xmlns="http://www.w3.org/2000/svg" xmlns:xlink="http://www.w3.org/1999/xlink" x="0px" y="0px"
	 width="20px" height="20px" viewBox="0 0 20 20" enable-background="new 0 0 20 20" xml:space="preserve">
<title>Page 1</title>
<desc>Created with Sketch.</desc>
<g id="Page-1_1_">
	<g id="购物车_x2014_空" transform="translate(-202.000000, -193.000000)">
		<g id="Page-1" transform="translate(202.000000, 193.000000)">
			<g id="Fill-1">
				<path fill="#BEA47A" d="M9.955,10.429c-1.733,0-3.143-1.41-3.143-3.143s1.41-3.143,3.143-3.143s3.143,1.41,3.143,3.143
					S11.688,10.429,9.955,10.429 M10.017,19.142c-2.699-0.005-5.224-1.182-6.964-3.24c0.912-2.645,3.717-4.474,6.909-4.474
					c3.247,0,6.058,1.863,6.937,4.562C15.224,17.916,12.762,19.137,10.017,19.142 M10,0.857c5.041,0,9.143,4.101,9.143,9.143
					c0,1.93-0.602,3.721-1.627,5.198c-0.939-2.221-3.052-3.861-5.616-4.418c1.225-0.684,2.055-1.994,2.055-3.494
					c0-2.206-1.794-4-4-4s-4,1.794-4,4c0,1.502,0.833,2.813,2.061,3.497c-2.525,0.555-4.626,2.169-5.58,4.348
					C1.44,13.667,0.857,11.9,0.857,10C0.857,4.959,4.959,0.857,10,0.857 M20,10c0-5.514-4.486-10-10-10S0,4.486,0,10s4.486,10,10,10
					c0.006,0,0.012,0,0.017,0s0.01,0,0.016,0c0.129,0,0.257-0.006,0.386-0.011c0.033-0.001,0.067-0.001,0.1-0.003
					c2.793-0.134,5.394-1.424,7.198-3.587l0.144-0.172l-0.011-0.041C19.194,14.482,20,12.334,20,10"/>
			</g>
		</g>
	</g>
</g>
</svg>
