<?xml version="1.0" encoding="UTF-8"?>
<svg width="16px" height="16px" viewBox="0 0 16 16" version="1.1" xmlns="http://www.w3.org/2000/svg" xmlns:xlink="http://www.w3.org/1999/xlink">
    <!-- Generator: Sketch 52.5 (67469) - http://www.bohemiancoding.com/sketch -->
    <title>Group 32</title>
    <desc>Created with Sketch.</desc>
    <g id="Page-1" stroke="none" stroke-width="1" fill="none" fill-rule="evenodd">
        <g id="Group-32" transform="translate(1.000000, 0.000000)">
            <path d="M7.22851562,10.4335938 L6.20898438,10.4335938 L6.20898438,9.9296875 C6.20898438,9.5195292 6.2910148,9.16699366 6.45507812,8.87207031 C6.61914145,8.57714696 6.91210727,8.26562664 7.33398438,7.9375 C7.74804895,7.6171859 8.04394442,7.31738421 8.22167969,7.03808594 C8.39941495,6.75878767 8.48828125,6.43750182 8.48828125,6.07421875 C8.48828125,5.68749807 8.35058731,5.36914188 8.07519531,5.11914062 C7.79980331,4.86913937 7.42578361,4.74414062 6.953125,4.74414062 C6.20702752,4.74414062 5.55078408,5.02734092 4.984375,5.59375 L4.984375,4.3984375 C5.64062828,3.9882792 6.35155867,3.78320312 7.1171875,3.78320312 C7.87891006,3.78320312 8.48534931,3.98339644 8.93652344,4.38378906 C9.38769757,4.78418169 9.61328125,5.30859051 9.61328125,5.95703125 C9.61328125,6.41015852 9.50781355,6.82226377 9.296875,7.19335938 C9.08593645,7.56445498 8.73242436,7.95507607 8.23632812,8.36523438 C7.83788863,8.69726729 7.57031318,8.96093652 7.43359375,9.15625 C7.29687432,9.35156348 7.22851562,9.62499824 7.22851562,9.9765625 L7.22851562,10.4335938 Z M6.71289062,11.6582031 C6.91992291,11.6582031 7.09765551,11.730468 7.24609375,11.875 C7.39453199,12.019532 7.46875,12.1953115 7.46875,12.4023438 C7.46875,12.6132823 7.39453199,12.7900383 7.24609375,12.9326172 C7.09765551,13.075196 6.91992291,13.1464844 6.71289062,13.1464844 C6.51367088,13.1464844 6.33984449,13.0761726 6.19140625,12.9355469 C6.04296801,12.7949212 5.96875,12.6171886 5.96875,12.4023438 C5.96875,12.1914052 6.04199146,12.0146492 6.18847656,11.8720703 C6.33496167,11.7294915 6.50976461,11.6582031 6.71289062,11.6582031 Z" id="？" fill="#000000"></path>
            <circle id="Oval" stroke="#333333" cx="7" cy="8" r="7"></circle>
        </g>
    </g>
</svg>