<?xml version="1.0" encoding="UTF-8" standalone="no"?>
<svg width="18px" height="15px" viewBox="0 0 18 15" version="1.1" xmlns="http://www.w3.org/2000/svg" xmlns:xlink="http://www.w3.org/1999/xlink">
    <!-- Generator: Sketch 44.1 (41455) - http://www.bohemiancoding.com/sketch -->
    <title>Group 3</title>
    <desc>Created with Sketch.</desc>
    <defs>
        <path d="M0.170035714,5.78029337 C0.170035714,2.72895408 3.02882143,0.255102041 6.55617857,0.255102041 C9.88167857,0.255102041 12.6131786,2.45440051 12.9146786,5.26403061 C15.7120714,5.37340561 17.9402143,7.31154337 17.9402143,9.68622449 C17.9402143,11.1610332 17.0810357,12.4674745 15.7596429,13.2723214 C15.5105357,13.4237883 16.2983571,14.7015306 16.0196786,14.815051 C15.9328929,14.8507653 15.5780357,14.5943878 15.2241429,14.3376913 C14.8744286,14.0845026 14.5256786,13.8313138 14.4353571,13.8584184 C13.8821786,14.0239158 13.2859286,14.1141582 12.6646071,14.1141582 C10.3911429,14.1141582 8.45421429,12.9072066 7.71203571,11.2155612 C7.33725,11.2748724 6.95089286,11.3058036 6.55617857,11.3058036 C5.76803571,11.3058036 5.01332143,11.182398 4.31710714,10.9569515 C4.14482143,10.901148 3.74753571,11.1973852 3.35057143,11.4936224 C2.94010714,11.7997449 2.52996429,12.1058673 2.36828571,12.0229592 C2.17832143,11.9263393 2.94010714,10.3392857 2.76396429,10.2267219 C1.19025,9.22034439 0.170035714,7.60331633 0.170035714,5.78029337 Z M3.6045,9.74170918 C3.55982143,10.1948342 3.4245,10.5047832 3.4245,10.5047832 C3.4245,10.5047832 3.79382143,10.0790816 4.06928571,9.87372449 C4.19142857,9.78252551 4.41771429,9.85076531 4.48167857,9.87372449 C5.11842857,10.1026786 5.81978571,10.2295918 6.55617857,10.2295918 C6.85028571,10.2295918 7.13892857,10.2091837 7.42017857,10.1705995 C7.39960714,10.0114796 7.389,9.85012755 7.389,9.68622449 C7.389,7.48820153 9.29796429,5.66390306 11.8009286,5.31855867 C11.5158214,3.09630102 9.27675,1.36702806 6.55617857,1.36702806 C3.64210714,1.36702806 1.28089286,3.35108418 1.28089286,5.79815051 C1.28089286,7.19292092 2.04782143,8.53507653 3.24739286,9.34757653 C3.31039286,9.38998724 3.62571429,9.53475765 3.6045,9.74170918 Z M13.4974286,8.03890306 C13.4974286,8.34598214 13.7462143,8.59502551 14.0528571,8.59502551 C14.3595,8.59502551 14.6079643,8.34598214 14.6079643,8.03890306 C14.6079643,7.73182398 14.3595,7.48278061 14.0528571,7.48278061 C13.7462143,7.48278061 13.4974286,7.73182398 13.4974286,8.03890306 Z M10.1655,8.03890306 C10.1655,8.34598214 10.4142857,8.59502551 10.7209286,8.59502551 C11.02725,8.59502551 11.2760357,8.34598214 11.2760357,8.03890306 C11.2760357,7.73182398 11.02725,7.48278061 10.7209286,7.48278061 C10.4142857,7.48278061 10.1655,7.73182398 10.1655,8.03890306 Z M7.94442857,3.8692602 C7.94442857,3.40848214 8.31728571,3.03507653 8.77692857,3.03507653 C9.23753571,3.03507653 9.61039286,3.40848214 9.61039286,3.8692602 C9.61039286,4.32971939 9.23753571,4.703125 8.77692857,4.703125 C8.31728571,4.703125 7.94442857,4.32971939 7.94442857,3.8692602 Z M3.50196429,3.8692602 C3.50196429,3.40848214 3.87482143,3.03507653 4.33478571,3.03507653 C4.79507143,3.03507653 5.16792857,3.40848214 5.16792857,3.8692602 C5.16792857,4.32971939 4.79507143,4.703125 4.33478571,4.703125 C3.87482143,4.703125 3.50196429,4.32971939 3.50196429,3.8692602 Z" id="path-1"/>
    </defs>
    <g id="Page-1" stroke="none" stroke-width="1" fill="none" fill-rule="evenodd">
        <g id="首页" transform="translate(-25.000000, -4582.000000)">
            <g id="Group-3" transform="translate(25.000000, 4582.000000)">
                <mask id="mask-2" fill="white">
                    <use xlink:href="#path-1"/>
                </mask>
                <use id="微信-灰色" fill="#333333" xlink:href="#path-1"/>
            </g>
        </g>
    </g>
</svg>